<svg xmlns="http://www.w3.org/2000/svg" xmlns:xlink="http://www.w3.org/1999/xlink" viewBox="0 0 350 330" opacity="0">
    <animate
      id="animStart"
      attributeType="CSS"
      attributeName="opacity"
      values="0; 1"
      begin="5.5s"
      dur="0.5s"
      fill="freeze"
    />

<!-- <rect width="350" height="330" viewBox="0 0 350 330" fill="grey"/> -->

  <g id="suitcaseTop">

    <set
      id="animOpacitySuitcaseTop"
      attributeName="opacity"
      to="0"
      begin="animStart.end + 0.5s"
    />

    <path d="M225.88,258.06H82.68a11.62,11.62,0,0,0-11.57,11.61v19.75H237.44V269.66a11.62,11.62,0,0,0-11.56-11.61" fill="#a67ee5"/>
    <path d="M225.88,258.06H82.68a11.62,11.62,0,0,0-11.57,11.61v19.75H237.44V269.66A11.62,11.62,0,0,0,225.88,258.06Z" fill="none" stroke="#fff" stroke-miterlimit="10" stroke-width="2"/>
    <path d="M267.11,258.06H119.23a11.81,11.81,0,0,0-11.93,11.61v19.75H279V269.66a11.81,11.81,0,0,0-11.93-11.61" fill="#a67ee5"/>
    <path d="M267.11,258.06H119.23a11.81,11.81,0,0,0-11.93,11.61v19.75H279V269.66A11.81,11.81,0,0,0,267.11,258.06Z" fill="none" stroke="#fff" stroke-miterlimit="10" stroke-width="2"/>
    <path d="M278.74,279.41a5.34,5.34,0,1,0-5.32-5.34,5.32,5.32,0,0,0,5.32,5.34" fill="#a67ee5"/>
    <ellipse cx="278.74" cy="274.07" rx="5.31" ry="5.34" fill="none" stroke="#fff" stroke-miterlimit="10" stroke-width="2"/>
    <path d="M277.62,269.66v9.75H266.89a5.72,5.72,0,0,1-5.71-5.73V258.06h4.88a11.61,11.61,0,0,1,11.56,11.61" fill="#a67ee5"/>
    <path d="M277.62,269.66v9.75H266.89a5.72,5.72,0,0,1-5.71-5.73V258.06h4.88A11.61,11.61,0,0,1,277.62,269.66Z" fill="none" stroke="#fff" stroke-miterlimit="10" stroke-width="2"/>
  </g>
  <g id="suitcaseTopOpen" opacity="0">
    
    <set
      attributeName="opacity"
      to="1"
      begin="animOpacitySuitcaseTop.begin"
    />

    <path d="M253.93,232.11a5.69,5.69,0,1,0-5.69-5.69,5.69,5.69,0,0,0,5.69,5.69" fill="#a67ee5"/>
    <circle cx="253.93" cy="226.42" r="5.69" fill="none" stroke="#fff" stroke-miterlimit="10" stroke-width="2"/>
    <path d="M240.3,210.48H67.19a12,12,0,0,0-12,11.9V276a13,13,0,0,0,13,13h184V222.38a12,12,0,0,0-11.94-11.9" fill="#a67ee5"/>
    <path d="M240.3,210.48H67.19a12,12,0,0,0-12,11.9V276a13,13,0,0,0,13,13h184V222.38A12,12,0,0,0,240.3,210.48Z" fill="none" stroke="#fff" stroke-miterlimit="10" stroke-width="2"/>
    <path d="M70.24,289V225.49a15,15,0,0,1,15-15h0.5" fill="none" stroke="#fff" stroke-width="2"/>
  </g>
  <g id="flowerBack" opacity="0">
    
    <set
      attributeName="opacity"
      to="1"
      begin="animOpacitySuitcaseTop.begin"
    />

    <animateTransform 
      attributeName="transform"
      type="rotate"
      values="40 180 295; -10 180 295; 3 180 295; -5 180 295; 0 180 295"
      keyTimes="0; 0.2; 0.4; 0.6; 1"
      dur="2s"
      begin="animOpacitySuitcaseTop.begin"
      fill="freeze"
    />

    <animateTransform
      id="idleFlowerBack"
      attributeName="transform"
      type="rotate"
      values="0 180 295; -1 180 295; 1 180 295; -1 180 295; 0 180 295"
      keyTimes="0; 0.25; 0.5; 0.75; 1"
      keySplines="0 0 0.5 1; 0 0 0.5 1; 0 0 0.5 1; 0 0 0.5 1"
      calcMode="spline"
      dur="3s"
      begin="animOpacitySuitcaseTop.begin + 5s; idleFlowerBack.end + 4.5s"
      fill="freeze"
    />

    <path d="M180.73,277.8s8.3-74.59,39.71-90" fill="none" stroke="#fff" stroke-linecap="round" stroke-linejoin="round" stroke-width="2"/>
    <path d="M217.95,187.12l9.27-24.49a22,22,0,0,1,8.72,3,7.87,7.87,0,0,1,9.72,12.33,22.14,22.14,0,0,1,.86,9.18l-26,3.3a2.45,2.45,0,0,1-2.6-3.29" fill="#3b7bf2"/>
    <path d="M178.24,287.63s6.89-44.68,37.95-56.53" fill="none" stroke="#fff" stroke-linecap="round" stroke-linejoin="round" stroke-width="2"/>
    <path d="M210.85,232l9-16.47a16.66,16.66,0,0,1,6.13,2.93,5.93,5.93,0,0,1,4-.42,5.67,5.67,0,0,1,4.26,6.85,5.54,5.54,0,0,1-2.29,3.23,15.1,15.1,0,0,1-.21,6.58l-19.34-.11a1.76,1.76,0,0,1-1.6-2.58" fill="#3b7bf2"/>
  </g>
    <g id="flowerCentre" opacity="0">

    <set
      attributeName="opacity"
      to="1"
      begin="animOpacitySuitcaseTop.begin"
    />

    <animateTransform 
      id="anim1FlowerCentre"
      attributeName="transform"
      type="rotate"
      values="70 180 295; -5 180 295; 0 180 295; 3 180 295; 0 180 295"
      keyTimes="0; 0.5; 0.65; 0.8; 1"
      dur="1s"
      begin="animOpacitySuitcaseTop.begin"
      additive="sum"
      fill="freeze"
    />

    <animateTransform 
      attributeName="transform"
      type="rotate"
      repeatCount="1"
      values="0 180 295; -3 180 295; 0 180 295; 3 180 295; 0 180 295"
      dur="2s"
      begin="anim1FlowerCentre.end"
      additive="sum"
      fill="freeze"
    />

    <animateTransform 
      id="idleFlowerCentre"
      attributeName="transform"
      type="rotate"
      repeatCount="1"
      values="0 180 295; -1 180 295; 0 180 295; 1 180 295; 0 180 295"
      dur="2s"
      begin="anim1FlowerCentre.end + 6s; idleFlowerCentre.end + 5s"
      additive="sum"
      fill="freeze"
    />

    <path d="M141.77,204.16c24.1,32.45,35.81,84,35.81,84" fill="none" stroke="#3b7bf2" stroke-linecap="round" stroke-linejoin="round" stroke-width="2"/>
    <path d="M125.73,196.22c6.54,7.51,17.16,9,17.16,9s0-10.72-6.53-18.22-17.17-9-17.17-9,0,10.72,6.54,18.22" fill="#76abff"/>
    <path d="M153.17,206.54c-2.69,9.58,1.91,19.27,1.91,19.27s9-5.86,11.67-15.45-1.91-19.27-1.91-19.27-9,5.86-11.67,15.45" fill="#3b7bf2"/>
    <path d="M135.82,227.71c9.59,2.7,19.26-1.91,19.26-1.91s-5.86-9-15.45-11.67S120.37,216,120.37,216s5.87,9,15.45,11.67" fill="#3b7bf2"/>
    <path d="M166.1,232.52c-3.41,9.36.47,19.35,0.47,19.35s9.39-5.18,12.79-14.53S178.89,218,178.89,218s-9.39,5.18-12.79,14.53" fill="#1553b7"/>
    <path d="M147.22,252.35c9.36,3.4,19.35-.47,19.35-0.47s-5.18-9.39-14.54-12.79-19.35.47-19.35,0.47,5.18,9.39,14.54,12.79" fill="#1553b7"/>
  </g>
  <g id="flowerFront" opacity="0">
    <set
      attributeName="opacity"
      to="1"
      begin="animOpacitySuitcaseTop.begin"
    />
      
    <animateTransform 
      id="anim1FlowerFront"
      attributeName="transform"
      type="rotate"
      values="70 180 295; -10 180 295; 0 180 295"
      keyTimes="0; 0.4; 1"
      dur="1s"
      begin="animOpacitySuitcaseTop.begin"
      additive="sum"
      fill="freeze"
    />

    <animateTransform 
      attributeName="transform"
      type="rotate"
      repeatCount="1"
      values="0 180 295; -10 180 295; 0 180 295; -5 180 295; 0 180 295"
      dur="1.9s"
      begin="anim1FlowerFront.end"
      additive="sum"
      fill="freeze"
    />

    <animateTransform 
      id="idleFlowerFront"
      attributeName="transform"
      type="rotate"
      repeatCount="1"
      values="0 180 295; -5 180 295; 0 180 295; -2.5 180 295; 0 180 295"
      dur="1.9s"
      begin="anim1FlowerFront.end + 6s; idleFlowerFront.end + 5s"
      additive="sum"
      fill="freeze"
    />

    <path d="M183.79,264.77c2.3,9.1-2.27,18.12-2.27,18.12s-8.32-5.74-10.63-14.85,2.27-18.12,2.27-18.12,8.32,5.75,10.63,14.85" fill="#3b7bf2"/>
    <path d="M199.63,285.16c-9.11,2.31-18.12-2.27-18.12-2.27s5.74-8.32,14.85-10.63,18.12,2.27,18.12,2.27-5.75,8.32-14.85,10.63" fill="#3b7bf2"/>
    <path d="M188.56,271.67a144.15,144.15,0,0,0-10.31,16.61" fill="none" stroke="#3b7bf2" stroke-linecap="round" stroke-linejoin="round" stroke-width="2"/>
    <path d="M203.69,264.19c-6.17,7.08-16.19,8.44-16.19,8.44s0-10.11,6.16-17.18S209.85,247,209.85,247s0,10.11-6.16,17.19" fill="#76abff"/>
  </g>
  <g id="ballonGroup">

    <animateTransform
      id="idleBallon"
      attributeName="transform"
      type="rotate"
      values="0 108 300; -1 108 300; 0 108 300; 1 108 300; 0 108 300"
      keyTimes="0; 0.3; 0.5; 0.7; 1"
      keySplines="0 0.3 0.8 1; 0 0 1 1; 0 0 1 1; 0 0.5 1 1"
      calcMode="spline"
      dur="4s"
      additive="sum"
      begin="animOpacitySuitcaseTop.begin + 5s; idleBallon.end + 5s"
      fill="freeze"
    />

  <g id="balloon" opacity="0">
    <set
      attributeName="opacity"
      to="1"
      begin="animOpacitySuitcaseTop.begin"
    />

    <animateTransform
      attributeName="transform"
      type="translate"
      values="0 160; 0 0; 10 30; -10 -20; 0 0; 10 -10; 0 0"
      keyTimes="0; 0.3; 0.5; 0.7; 0.8; 0.9; 1"
      dur="1.8s"
      begin="animOpacitySuitcaseTop.begin"
      fill="freeze"
    />

    <g>
      <animateTransform 
        attributeName="transform"
        type="rotate"
        values="90 108 165; 0 108 165; -20 108 165; 0 108 165; 15 108 165; 0 108 165; -10 108 165; 0 108 165; 5 108 165; 0 108 165; -3 108 165; 0 108 165"
        keyTimes="0; 0.3; 0.4; 0.5; 0.6; 0.7; 0.75; 0.8; 0.85; 0.9; 0.95; 1"
        dur="1.8s"
        additive="sum"
        begin="animOpacitySuitcaseTop.begin"
        fill="freeze"
      />

      <path d="M106.58,161.87l-2.19,3.79a1.34,1.34,0,0,0,1.17,2h4.37a1.34,1.34,0,0,0,1.16-2l-2.18-3.79a1.35,1.35,0,0,0-2.33,0" fill="#fff"/>
      <path d="M107.74,79.42a32.91,32.91,0,0,1,32.9,32.89c0,18.17-15.09,48.89-33.25,48.89s-32.55-30.73-32.55-48.89a32.91,32.91,0,0,1,32.9-32.89m0-1.61a34.54,34.54,0,0,0-34.5,34.5c0,9.51,3.8,22.1,9.68,32.07,7,11.88,15.68,18.42,24.46,18.42s17.6-6.54,24.81-18.4c6.1-10,10.05-22.64,10.05-32.09a34.54,34.54,0,0,0-34.5-34.5" fill="#fff"/>
      <path d="M96.06,112.39c0-18.16,5.23-32.89,11.68-32.89a32.91,32.91,0,0,0-32.9,32.89c0,18.17,14.38,48.89,32.55,48.89h0.17c-6.43-.19-11.5-30.77-11.5-48.89" fill="#76abff"/>
      <path d="M140.64,112.39a32.91,32.91,0,0,0-32.9-32.89c6.45,0,11.68,14.73,11.68,32.89s-5.29,48.48-11.68,48.87c18-.39,32.9-30.82,32.9-48.87" fill="#1553b7"/>
      <path d="M119.42,112.39c0-18.16-5.23-32.89-11.68-32.89S96.06,94.23,96.06,112.39s5.07,48.69,11.5,48.89h0.18c6.39-.4,11.68-30.83,11.68-48.88" fill="#3b7bf2"/>
      <path d="M100.54,105.36a5.7,5.7,0,1,0,5.7,5.7,5.39,5.39,0,0,0-5.7-5.7m0,8c-1.86,0-3.06-.93-3.06-2.29s1.21-2.29,3.06-2.29,3.07,0.93,3.07,2.29-1.25,2.29-3.07,2.29" fill="#fff"/>
      <path d="M114.74,105.36a1.78,1.78,0,0,1,1.46,2.8L102.87,127.5a1.79,1.79,0,0,1-2.94-2l13.34-19.34a1.77,1.77,0,0,1,1.47-.77" fill="#fff"/>
      <path d="M116.21,116.88a5.7,5.7,0,1,0,5.7,5.7,5.4,5.4,0,0,0-5.7-5.7m0,8c-1.86,0-3.06-.93-3.06-2.29s1.21-2.29,3.06-2.29,3.07,0.9,3.07,2.29-1.21,2.29-3.07,2.29" fill="#fff"/>
    </g>
  </g>
  <g id="balloonString" opacity="0">
    <set
      attributeName="opacity"
      to="1"
      begin="animOpacitySuitcaseTop.begin"/>
    <line x1="107.65" y1="166.71" x2="107.65" y2="289.02" fill="none" stroke="#fff" stroke-linecap="round" stroke-miterlimit="10" stroke-width="2">
      <animate 
        attributeName="x1" 
        additive="sum"
        dur="1.8s"
        begin="animOpacitySuitcaseTop.begin"
        values="0; 0; 10; -10; 0; 10; 0"
        keyTimes="0; 0.3; 0.5; 0.7; 0.8; 0.9; 1" 
        fill="freeze"
      />

      <animate 
        attributeName="y1" 
        additive="sum"
        dur="1.8s"
        begin="animOpacitySuitcaseTop.begin"
        values="160; 0; 30; -20; 0; -10; 0"
        keyTimes="0; 0.3; 0.5; 0.7; 0.8; 0.9; 1"
        fill="freeze"
      />

    </line>
  </g>
  </g>
  <g id="bird" opacity="0">
    <set
      attributeName="opacity"
      to="1"
      begin="animOpacitySuitcaseTop.begin"
    />

    <animateTransform
      id="startAnimBird"
      attributeName="transform"
      type="translate"
      values="-80 120; 0 0"
      dur="0.4s"
      additive="sum"
      begin="animOpacitySuitcaseTop.begin"
      fill="freeze"
    />

    <animateTransform
        attributeName="transform"
        type="rotate"
        values="-90 285 190; 0 285 190"
        dur="0.4s"
        additive="sum"
        begin="animOpacitySuitcaseTop.begin"
        fill="freeze"
      />

      <animateTransform
        attributeName="transform"
        type="translate"
        repeatCount="indefinite" 
        values="0 0; 0 0; -5 5; -5 5; 0 0"
        keyTimes="0; 0.3; 0.5; 0.8; 1"
        keySplines="0 0.3 0.8 1; 0 0.3 0.8 1; 0 0.3 0.8 1; 0 0.3 0.8 1"
        calcMode="spline"
        dur="3s"
        begin="startAnimBird.end"
        additive="sum"
        fill="freeze"
      />

      <animateTransform
        attributeName="transform"
        type="rotate"
        repeatCount="indefinite"
        values="0 285 190; 2 285 190; 0 285 190; -3 285 190; 0 285 190"
        keyTimes="0; 0.3; 0.5; 0.7; 1"
        keySplines="0 0.3 0.8 1; 0 0.3 0.8 1; 0 0.3 0.8 1; 0 0.3 0.8 1" 
        calcMode="spline"
        dur="3s"
        begin="startAnimBird.end - 0.7s"
        additive="sum"
        fill="freeze"
      />

    <path d="M279 184.153C279.002 183.045 278.883 181.967 278.66 181.099C278.438 180.23 278.127 179.622 277.778 179.375V179.375L271 174C273.503 188.771 277.17 189 277.433 189C277.849 188.987 278.245 188.467 278.538 187.554C278.83 186.641 278.994 185.408 278.994 184.123" fill="white">
      <animate 
        repeatCount="indefinite" 
        begin="animOpacitySuitcaseTop.begin"
        attributeName="d" 
        dur="0.1s"
        values="
        M279 184.153C279.002 183.045 278.883 181.967 278.66 181.099C278.438 180.23 278.127 179.622 277.778 179.375V179.375L271 174C273.503 188.771 277.17 189 277.433 189C277.849 188.987 278.245 188.467 278.538 187.554C278.83 186.641 278.994 185.408 278.994 184.123;
        M279 184.153C278.997 183.045 279.147 181.967 279.425 181.099C279.702 180.23 280.092 179.622 280.528 179.375V179.375L289 174C285.872 188.771 281.288 189 280.958 189C280.439 188.987 279.943 188.467 279.578 187.554C279.213 186.641 279.008 185.408 279.008 184.123;
        M279 183.8C279.192 182.687 279.565 181.605 280.256 180.732C280.947 179.859 281.915 179.248 283 179L304.07 173.6C296.29 188.44 284.89 188.67 284.07 188.67C282.779 188.657 281.546 188.135 280.637 187.217C279.729 186.3 279.22 185.061 279.22 183.77;
        M279 184.153C278.997 183.045 279.147 181.967 279.425 181.099C279.702 180.23 280.092 179.622 280.528 179.375V179.375L289 174C285.872 188.771 281.288 189 280.958 189C280.439 188.987 279.943 188.467 279.578 187.554C279.213 186.641 279.008 185.408 279.008 184.123;
        M279 184.153C279.002 183.045 278.883 181.967 278.66 181.099C278.438 180.23 278.127 179.622 277.778 179.375V179.375L271 174C273.503 188.771 277.17 189 277.433 189C277.849 188.987 278.245 188.467 278.538 187.554C278.83 186.641 278.994 185.408 278.994 184.123
        "
      />
    </path>
    <path d="M262.24,169.86l10.76,0a4.65,4.65,0,0,1,4.41-2.9,3.91,3.91,0,0,1,3.48,1.76,13.39,13.39,0,0,1,1.37,2.59c0.63,1.57,4,15.8,5.89,19.16,1.1,2,4.39,7.16,4.39,7.16a2.3,2.3,0,0,1,.31,1.15V208s-3.11-1.08-3.11-3.91v-6.53c-1.91.27-6-1.65-8.33-2.88a12.82,12.82,0,0,1-6.36-6.76,12.33,12.33,0,0,1-.11-9.16,7.13,7.13,0,0,0,.79-2.91c-0.06-1.14-1.39-2.72-2.18-4.05Z" fill="#fff"/>
  </g>
  <g id="suitcaseBottom">
    <path d="M280.29,318.62a5.72,5.72,0,1,0-5.12-5.69,5.43,5.43,0,0,0,5.12,5.69" fill="#a67ee5"/>
    <ellipse cx="280.29" cy="312.93" rx="5.12" ry="5.69" fill="none" stroke="#fff" stroke-miterlimit="10" stroke-width="2"/>
    <path d="M230.22,328.86h-148a11.85,11.85,0,0,1-11.95-11.67V289H242.16v28.17a11.84,11.84,0,0,1-11.94,11.67" fill="#a67ee5"/>
    <path d="M230.22,328.86h-148a11.85,11.85,0,0,1-11.95-11.67V289H242.16v28.17A11.84,11.84,0,0,1,230.22,328.86Z" fill="none" stroke="#fff" stroke-miterlimit="10" stroke-width="2"/>
    <path d="M266.72,328.86h-147a11.81,11.81,0,0,1-11.87-11.67V289H278.58v28.17a11.79,11.79,0,0,1-11.86,11.67" fill="#a67ee5"/>
    <path d="M266.72,328.86h-147a11.81,11.81,0,0,1-11.87-11.67V289H278.58v28.17A11.79,11.79,0,0,1,266.72,328.86Z" fill="none" stroke="#fff" stroke-miterlimit="10" stroke-width="2"/>
    <path d="M215,314.07H180.49a4.27,4.27,0,0,1-4.35-4.16V298.21a1.24,1.24,0,0,1,1.27-1.22h2.88a1.25,1.25,0,0,1,1.27,1.22v10a1.33,1.33,0,0,0,1.35,1.29h29.71a1.33,1.33,0,0,0,1.35-1.29v-10a1.24,1.24,0,0,1,1.27-1.22h2.88a1.25,1.25,0,0,1,1.27,1.22V309.9a4.27,4.27,0,0,1-4.35,4.16" fill="#a67ee5"/>
    <path d="M215,314.07H180.49a4.27,4.27,0,0,1-4.35-4.16V298.21a1.24,1.24,0,0,1,1.27-1.22h2.88a1.25,1.25,0,0,1,1.27,1.22v10a1.33,1.33,0,0,0,1.35,1.29h29.71a1.33,1.33,0,0,0,1.35-1.29v-10a1.24,1.24,0,0,1,1.27-1.22h2.88a1.25,1.25,0,0,1,1.27,1.22V309.9A4.27,4.27,0,0,1,215,314.07Z" fill="none" stroke="#fff" stroke-miterlimit="10" stroke-width="2"/>
    <rect x="138.58" y="282.19" width="9.1" height="12.52" fill="#a67ee5"/>
    <rect x="138.58" y="282.19" width="9.1" height="12.52" fill="none" stroke="#fff" stroke-miterlimit="10" stroke-width="2"/>
    <rect x="247.85" y="282.19" width="9.1" height="12.52" fill="#a67ee5"/>
    <rect x="247.85" y="282.19" width="9.1" height="12.52" fill="none" stroke="#fff" stroke-miterlimit="10" stroke-width="2"/>
    <path d="M278.58,317.11v-9.87h-10.4a5.67,5.67,0,0,0-5.53,5.8v15.82h4.73c6.16,0,11.2-5.29,11.2-11.75" fill="#a67ee5"/>
    <path d="M278.58,317.11v-9.87h-10.4a5.67,5.67,0,0,0-5.53,5.8v15.82h4.73C273.54,328.86,278.58,323.58,278.58,317.11Z" fill="none" stroke="#fff" stroke-miterlimit="10" stroke-width="2"/>
    <path d="M100,301.54H79.22a1,1,0,0,1-1-1V298a1,1,0,0,1,1-1H100a1,1,0,0,1,1,1v2.58a1,1,0,0,1-1,1" fill="#a67ee5"/>
    <path d="M100,301.54H79.22a1,1,0,0,1-1-1V298a1,1,0,0,1,1-1H100a1,1,0,0,1,1,1v2.58A1,1,0,0,1,100,301.54Z" fill="none" stroke="#fff" stroke-miterlimit="10" stroke-width="2"/>
  </g>

  <g>
    <line x1="46.24" y1="329" x2="303.76" y2="329" fill="none" stroke="#fff" stroke-linecap="round" stroke-linejoin="round" stroke-width="2"/>
  </g>
</svg>
