<svg xmlns="http://www.w3.org/2000/svg" xmlns:xlink="http://www.w3.org/1999/xlink" fill="none" viewBox="0 0 340 330">
<!-- <rect width="350" height="330" viewBox="0 0 350 330" fill="grey"/> -->
    <g id="clouds">
      <animate
        id="animOpacityClouds"
        attributeType="CSS"
        attributeName="opacity"
        values="1; 0"
        dur="1s"
        begin="animCloud1.end + 0.5s"
        fill="freeze"
      />
          
      <g id="cloud1" opacity="0">
          <animateTransform
            attributeName="transform"
            type="translate"
            values="0 0; 0 -50"
            dur="1s"
            begin="animOpacityClouds.begin"
            additive="sum"
            fill="freeze"
          />

          <animateTransform
            id="animCloud1"
            attributeName="transform"
            type="translate"
            values="70 0; 0 0"
            keyTimes="0; 1"
            keySplines="0 0 0.4 1"
            calcMode="spline"
            dur="0.7s"
            begin="4.5s"
            additive="sum"
            fill="freeze"
          />
            
          <animate
            attributeType="CSS"
            attributeName="opacity"
            values="0; 1"
            dur="0.5s"
            fill="freeze"
            begin="animCloud1.begin"
          />

          <path d="M65.43 77.72H105.21" stroke="white" stroke-width="2" stroke-miterlimit="10" stroke-linecap="round"/>
          <path d="M85.22 67.45H57.86C57.86 64.1613 56.5536 61.0073 54.2281 58.6819C51.9027 56.3564 48.7487 55.05 45.46 55.05C42.1713 55.05 39.0173 56.3564 36.6919 58.6819C34.3664 61.0073 33.06 64.1613 33.06 67.45H15.13" stroke="white" stroke-width="2" stroke-miterlimit="10" stroke-linecap="round"/>
          <path d="M93.48 67.45H115.68" stroke="white" stroke-width="2" stroke-miterlimit="10" stroke-linecap="round"/>
        </g>
        <g id="cloud2" opacity="0">
          <animateTransform
            attributeName="transform"
            type="translate"
            values="0 0; 0 -90" 
            dur="1s"
            begin="animOpacityClouds.begin" 
            additive="sum"
            fill="freeze"
          />

          <animateTransform
            attributeName="transform" 
            type="translate"
            values="70 0; 0 0"
            keyTimes="0; 1"
            keySplines="0 0 0.4 1"
            calcMode="spline"
            dur="0.7s"
            begin="animCloud1.begin + 0.2s"
            fill="freeze"
          />

          <animate
            attributeType="CSS"
            attributeName="opacity"
            values="0; 1"
            dur="0.5s"
            fill="freeze"
            begin="animCloud1.begin + 0.2s"
          />

          <path d="M272.13 145.27H311.9" stroke="white" stroke-width="2" stroke-miterlimit="10" stroke-linecap="round"/>
          <path d="M300.17 135H322.37" stroke="white" stroke-width="2" stroke-miterlimit="10" stroke-linecap="round"/>
          <path d="M235.77 119H216.32C216.198 110.896 213.305 103.078 208.124 96.8464C202.942 90.6144 195.784 86.3436 187.838 84.744C179.893 83.1445 171.64 84.3125 164.45 88.054C157.261 91.7954 151.569 97.8849 148.32 105.31C144.378 103.122 139.939 101.982 135.43 102C130.068 102.018 124.835 103.649 120.412 106.681C115.989 109.713 112.581 114.005 110.63 119H95.48C92.6952 119 90.0245 120.106 88.0554 122.075C86.0863 124.045 84.98 126.715 84.98 129.5C84.98 132.285 86.0863 134.956 88.0554 136.925C90.0245 138.894 92.6952 140 95.48 140H235.78C238.565 140 241.235 138.894 243.205 136.925C245.174 134.956 246.28 132.285 246.28 129.5C246.28 126.715 245.174 124.045 243.205 122.075C241.235 120.106 238.565 119 235.78 119" fill="white"/>
        </g>
    </g>

    <g id="backFlower" opacity="0">
      <animate
        attributeType="CSS"
        attributeName="opacity"
        values="0; 1"
        dur="1s"
        begin="animCloud1.begin"
        fill="freeze"
      />

      <g>
        <animateTransform
          id="animBackFlower"
          attributeName="transform"
          type="rotate"
          values="0 270 250; 10 270 250; 0 270 250; 5 270 250; 0 270 250"
          dur="1s"
          begin="animCloud1.begin; animBackFlower.end + 4.5s"
          fill="freeze"
        />

        <path d="M263.47 206.82C263.795 206.58 264.184 206.444 264.588 206.43C264.991 206.415 265.39 206.524 265.731 206.74C266.072 206.956 266.339 207.271 266.498 207.642C266.656 208.013 266.699 208.424 266.62 208.82C265.62 215.82 264.55 229.15 271.47 228.22C276.41 227.56 254.82 196.69 290.79 190.06C291.162 189.982 291.548 190.011 291.903 190.145C292.259 190.278 292.569 190.51 292.797 190.813C293.026 191.116 293.164 191.478 293.194 191.856C293.225 192.235 293.147 192.614 292.97 192.95C291.65 195.69 290.14 199.56 290.24 202.85C290.248 203.283 290.396 203.702 290.663 204.044C290.93 204.386 291.301 204.632 291.719 204.744C292.138 204.857 292.582 204.831 292.984 204.67C293.386 204.508 293.725 204.221 293.95 203.85C298.05 197.7 309.05 185.99 330.54 193.15C330.883 193.261 331.189 193.463 331.427 193.734C331.665 194.005 331.825 194.335 331.89 194.69C332.82 199.49 336.02 217.93 331.6 223.41C326.51 229.72 316.6 227.55 315.42 233.66C314.12 240.57 322.93 238.48 328.84 233.44C329.138 233.177 329.507 233.008 329.9 232.956C330.294 232.903 330.695 232.969 331.051 233.145C331.407 233.321 331.703 233.599 331.9 233.943C332.098 234.288 332.188 234.684 332.16 235.08C331.91 240.53 329.98 249.08 321.04 253.77C307.26 260.98 297.56 246.77 295.85 249.89C293.26 254.55 303.79 258.36 309.63 260.07C310.001 260.168 310.336 260.371 310.595 260.654C310.855 260.938 311.026 261.29 311.091 261.669C311.155 262.047 311.109 262.436 310.958 262.789C310.807 263.143 310.558 263.445 310.24 263.66C299.72 271.4 281.11 273.94 273.24 258.25C264.94 241.66 260.31 245.76 255.05 237.87C249.34 229.3 250.72 215.33 263.43 206.82H263.47ZM292.83 239.29C293.33 242.02 298.03 242.8 301.18 242.23C304.33 241.66 309.65 238.4 309.18 235.67C308.71 232.94 302.56 231.77 299.4 232.34C296.24 232.91 292.35 236.56 292.85 239.29" fill="#E81A5A"/>
      </g>
      <path d="M263 327.88C263 327.88 258.09 257.61 268.54 247.16" stroke="#E81A5A" stroke-width="2" stroke-miterlimit="10"/>
    </g>
    <g id="suitcase" opacity="0">

       <animateTransform
            id="animSuitcase"
            attributeName="transform"
            type="scale"
            values="0; 0; 0.7; 1"
            keyTimes="0; 0.1; 0.9; 1"
            dur="1.5s"
            additive="sum"
            begin="animCloud1.end" 
            fill="freeze"/>

        <set
            attributeName="opacity"
            to="1"
            begin="animCloud1.end"/>

        <animateTransform
            attributeName="transform"
            type="rotate"
            values="30 220 280; -30 220 280; 20 220 280; 18.29 220 280; -6.48 220 280; 0 220 280"
            keyTimes="0; 0.35; 0.6; 0.72; 0.9; 1"
            dur="1.6s"
            additive="sum"
            begin="animSuitcase.begin"
            fill="freeze"/>

        <animateTransform
            attributeName="transform"
            type="translate"
            values="600 -600; 100 -410; -100 -400; -200 -300; -215 -293" 
            dur="1.7s" 
            additive="sum" 
            begin="animSuitcase.begin"
            fill="freeze"/>

      <animateMotion
        dur="1.6s"
        fill="freeze"
        begin="animSuitcase.begin">
        <mpath href="#flySuitcase"/>
      </animateMotion>

      <path d="M251.89 328.88C252.825 328.877 253.722 328.505 254.383 327.843C255.045 327.182 255.417 326.285 255.42 325.35V320.28C255.42 319.344 255.048 318.446 254.386 317.784C253.724 317.122 252.826 316.75 251.89 316.75C250.954 316.75 250.056 317.122 249.394 317.784C248.732 318.446 248.36 319.344 248.36 320.28V325.35C248.365 326.285 248.739 327.179 249.4 327.84C250.061 328.501 250.955 328.875 251.89 328.88" fill="#A67EE5"/>
      <path d="M251.89 328.88C252.825 328.877 253.722 328.505 254.383 327.843C255.045 327.182 255.417 326.285 255.42 325.35V320.28C255.42 319.344 255.048 318.446 254.386 317.784C253.724 317.122 252.826 316.75 251.89 316.75C250.954 316.75 250.056 317.122 249.394 317.784C248.732 318.446 248.36 319.344 248.36 320.28V325.35C248.365 326.285 248.739 327.179 249.4 327.84C250.061 328.501 250.955 328.875 251.89 328.88V328.88Z" stroke="white" stroke-width="2" stroke-miterlimit="10"/>
      <path d="M176.35 328.88C177.285 328.877 178.182 328.505 178.843 327.843C179.505 327.182 179.877 326.285 179.88 325.35V320.28C179.88 319.344 179.508 318.446 178.846 317.784C178.184 317.122 177.286 316.75 176.35 316.75C175.414 316.75 174.516 317.122 173.854 317.784C173.192 318.446 172.82 319.344 172.82 320.28V325.35C172.823 326.285 173.195 327.182 173.857 327.843C174.518 328.505 175.415 328.877 176.35 328.88" fill="#A67EE5"/>
      <path d="M176.35 328.88C177.285 328.877 178.182 328.505 178.843 327.843C179.505 327.182 179.877 326.285 179.88 325.35V320.28C179.88 319.344 179.508 318.446 178.846 317.784C178.184 317.122 177.286 316.75 176.35 316.75C175.414 316.75 174.516 317.122 173.854 317.784C173.192 318.446 172.82 319.344 172.82 320.28V325.35C172.823 326.285 173.195 327.182 173.857 327.843C174.518 328.505 175.415 328.877 176.35 328.88V328.88Z" stroke="white" stroke-width="2" stroke-miterlimit="10"/>
      <path d="M170.92 320.29H245.42C248.428 320.282 251.31 319.084 253.437 316.957C255.564 314.83 256.762 311.948 256.77 308.94V242.86C256.762 239.852 255.564 236.97 253.437 234.843C251.31 232.716 248.428 231.518 245.42 231.51H170.92C167.912 231.518 165.03 232.716 162.903 234.843C160.776 236.97 159.578 239.852 159.57 242.86V308.94C159.578 311.948 160.776 314.83 162.903 316.957C165.03 319.084 167.912 320.282 170.92 320.29" fill="#A67EE5"/>
      <path d="M245.42 231.51H170.92C164.652 231.51 159.57 236.592 159.57 242.86V308.94C159.57 315.208 164.652 320.29 170.92 320.29H245.42C251.688 320.29 256.77 315.208 256.77 308.94V242.86C256.77 236.592 251.688 231.51 245.42 231.51Z" stroke="white" stroke-width="2" stroke-miterlimit="10"/>
      <path d="M199.26 219.15H231.66C232.741 219.153 233.778 219.583 234.542 220.348C235.307 221.112 235.737 222.149 235.74 223.23V239.23C235.74 239.546 235.615 239.848 235.391 240.071C235.168 240.295 234.866 240.42 234.55 240.42H231.85C231.534 240.42 231.232 240.295 231.009 240.071C230.785 239.848 230.66 239.546 230.66 239.23V224.86C230.66 224.523 230.526 224.2 230.288 223.962C230.05 223.724 229.727 223.59 229.39 223.59H201.53C201.193 223.59 200.87 223.724 200.632 223.962C200.394 224.2 200.26 224.523 200.26 224.86V239.24C200.26 239.556 200.135 239.858 199.911 240.081C199.688 240.305 199.386 240.43 199.07 240.43H196.37C196.054 240.43 195.752 240.305 195.529 240.081C195.305 239.858 195.18 239.556 195.18 239.24V223.24C195.185 222.158 195.618 221.122 196.384 220.357C197.151 219.593 198.188 219.163 199.27 219.16" fill="#A67EE5"/>
      <path d="M199.26 219.15H231.66C232.741 219.153 233.778 219.583 234.542 220.348C235.307 221.112 235.737 222.149 235.74 223.23V239.23C235.74 239.546 235.615 239.848 235.391 240.071C235.168 240.295 234.866 240.42 234.55 240.42H231.85C231.534 240.42 231.232 240.295 231.009 240.071C230.785 239.848 230.66 239.546 230.66 239.23V224.86C230.66 224.523 230.526 224.2 230.288 223.962C230.05 223.724 229.727 223.59 229.39 223.59H201.53C201.193 223.59 200.87 223.724 200.632 223.962C200.394 224.2 200.26 224.523 200.26 224.86V239.24C200.26 239.556 200.135 239.858 199.911 240.081C199.688 240.305 199.386 240.43 199.07 240.43H196.37C196.054 240.43 195.752 240.305 195.529 240.081C195.305 239.858 195.18 239.556 195.18 239.24V223.24C195.183 222.158 195.613 221.121 196.377 220.354C197.142 219.588 198.178 219.155 199.26 219.15Z" stroke="white" stroke-width="2" stroke-miterlimit="10"/>
      <path d="M185.34 320.29H259.84C262.848 320.282 265.73 319.084 267.857 316.957C269.984 314.83 271.182 311.948 271.19 308.94V242.86C271.182 239.852 269.984 236.97 267.857 234.843C265.73 232.716 262.848 231.518 259.84 231.51H185.34C182.334 231.521 179.454 232.72 177.33 234.847C175.205 236.973 174.008 239.854 174 242.86V308.94C174.011 311.947 175.21 314.828 177.336 316.954C179.462 319.08 182.343 320.279 185.35 320.29" fill="#A67EE5"/>
      <path d="M185.34 320.29H259.84C262.848 320.282 265.73 319.084 267.857 316.957C269.984 314.83 271.182 311.948 271.19 308.94V242.86C271.182 239.852 269.984 236.97 267.857 234.843C265.73 232.716 262.848 231.518 259.84 231.51H185.34C182.334 231.521 179.454 232.72 177.33 234.847C175.205 236.973 174.008 239.854 174 242.86V308.94C174.011 311.945 175.208 314.825 177.332 316.951C179.457 319.076 182.335 320.277 185.34 320.29V320.29Z" stroke="white" stroke-width="2" stroke-miterlimit="10"/>
      <path d="M254.22 252.43H190.97" stroke="white" stroke-width="2" stroke-miterlimit="10" stroke-linecap="round"/>
      <path d="M254.22 275.9H190.97" stroke="white" stroke-width="2" stroke-miterlimit="10" stroke-linecap="round"/>
      <path d="M254.22 299.38H190.97" stroke="white" stroke-width="2" stroke-miterlimit="10" stroke-linecap="round"/>
      <path d="M168.12 253.68H168.79V298.14H168.12C167.189 298.137 166.297 297.767 165.637 297.11C164.978 296.452 164.605 295.561 164.6 294.63V257.2C164.6 256.738 164.691 256.28 164.868 255.853C165.045 255.426 165.304 255.038 165.631 254.711C165.958 254.384 166.346 254.125 166.773 253.948C167.2 253.771 167.658 253.68 168.12 253.68" fill="#A67EE5"/>
      <path d="M168.12 253.68H168.79V298.14H168.12C167.189 298.137 166.297 297.767 165.637 297.11C164.978 296.452 164.605 295.561 164.6 294.63V257.2C164.6 256.266 164.971 255.371 165.631 254.711C166.291 254.051 167.186 253.68 168.12 253.68V253.68Z" stroke="white" stroke-width="2" stroke-miterlimit="10"/>
      <path d="M215.46 218.86L159.87 139.03" stroke="white" stroke-width="2" stroke-linecap="round" stroke-linejoin="round"/>
      <path d="M215.46 218.86L196.93 139.03" stroke="white" stroke-width="2" stroke-linecap="round" stroke-linejoin="round"/>
      <path d="M233.99 139.03L215.46 218.86" stroke="white" stroke-width="2" stroke-linecap="round" stroke-linejoin="round"/>
      <path d="M271.04 139.03L215.46 218.86" stroke="white" stroke-width="2" stroke-linecap="round" stroke-linejoin="round"/>
      <path d="M215.46 83.44C230.19 83.4506 244.314 89.3083 254.728 99.7261C265.142 110.144 270.995 124.27 271 139C271 132.24 262.7 126.75 252.47 126.75C242.24 126.75 234.16 132.1 233.95 138.75C233.95 138.83 233.95 138.92 233.95 139.01C233.95 132.25 225.65 126.76 215.42 126.76C205.19 126.76 196.88 132.25 196.88 139.01C196.88 138.92 196.88 138.84 196.88 138.75C196.66 132.11 188.46 126.75 178.36 126.75C168.26 126.75 159.84 132.24 159.84 139C159.839 131.699 161.276 124.47 164.069 117.725C166.862 110.98 170.957 104.851 176.119 99.689C181.281 94.5267 187.41 90.432 194.155 87.6389C200.9 84.8457 208.129 83.4087 215.43 83.41L215.46 83.44ZM215.43 81.75C200.258 81.7765 185.716 87.8179 174.992 98.5498C164.267 109.282 158.236 123.828 158.22 139C158.22 139.218 158.263 139.434 158.346 139.635C158.43 139.837 158.552 140.02 158.706 140.174C158.86 140.328 159.043 140.45 159.245 140.534C159.446 140.617 159.662 140.66 159.88 140.66C160.098 140.66 160.314 140.617 160.515 140.534C160.717 140.45 160.9 140.328 161.054 140.174C161.208 140.02 161.33 139.837 161.414 139.635C161.497 139.434 161.54 139.218 161.54 139C161.54 133.16 169.11 128.41 178.41 128.41C187.52 128.41 195.09 133.07 195.27 138.79V139C195.27 139.44 195.445 139.862 195.756 140.174C196.068 140.485 196.49 140.66 196.93 140.66C197.37 140.66 197.792 140.485 198.104 140.174C198.415 139.862 198.59 139.44 198.59 139C198.59 133.16 206.16 128.41 215.46 128.41C224.76 128.41 232.33 133.16 232.33 139C232.33 139.44 232.505 139.862 232.816 140.174C233.128 140.485 233.55 140.66 233.99 140.66C234.43 140.66 234.852 140.485 235.164 140.174C235.475 139.862 235.65 139.44 235.65 139V138.79C235.83 133.06 243.39 128.4 252.51 128.4C261.81 128.4 269.38 133.15 269.38 138.99C269.38 139.43 269.555 139.852 269.866 140.164C270.178 140.475 270.6 140.65 271.04 140.65C271.48 140.65 271.902 140.475 272.214 140.164C272.525 139.852 272.7 139.43 272.7 138.99C272.687 123.814 266.654 109.263 255.924 98.5298C245.195 87.7968 230.646 81.7585 215.47 81.74" fill="white"/>
      <path d="M215.46 83.44C225.38 83.44 233.46 104.34 234 138.77C234.21 132.12 242.41 126.77 252.52 126.77C262.63 126.77 271 132.27 271 139C271 124.257 265.143 110.117 254.718 99.6919C244.293 89.2668 230.153 83.41 215.41 83.41" fill="#E81A5A"/>
      <path d="M215.45 83.44C200.713 83.44 186.579 89.293 176.156 99.7119C165.733 110.131 159.875 124.263 159.87 139C159.87 132.24 168.17 126.75 178.39 126.75C188.61 126.75 196.69 132.1 196.91 138.75C197.43 104.32 205.52 83.43 215.44 83.43" fill="#FE6183"/>
      <path d="M215.46 83.44C205.53 83.44 197.46 104.34 196.92 138.76C196.92 138.85 196.92 138.93 196.92 139.02C196.92 132.26 205.22 126.77 215.45 126.77C225.68 126.77 234 132.27 234 139C234 138.91 234 138.83 234 138.74C233.49 104.31 225.4 83.41 215.48 83.41" fill="#F7396B"/>
    </g>

    <g id="frontFlower" opacity="0">
      <animate
        attributeType="CSS"
        attributeName="opacity"
        values="0; 1"
        dur="1s"
        begin="animCloud1.begin"
        fill="freeze"
      />

      <animateTransform
        id="animFrontFlower"
        attributeName="transform"
        type="rotate"
        values="0 240 330; 3 240 330; -2 240 330; 1 240 330; 0 240 330"
        keyTimes="0; 0.3; 0.5; 0.7; 1"
        dur="1.5s"
        begin="animCloud1.begin; animBackFlower.end + 4s"
        fill="freeze"
      />
        
      <path d="M322.92 283.4C323.203 283.676 323.404 284.024 323.501 284.407C323.598 284.79 323.588 285.193 323.47 285.57C322.41 289 318.89 298.42 311.37 301.91C306.24 304.29 303.04 299.21 300.45 302.68C297.86 306.15 302.55 307.68 307.37 306.99C307.786 306.922 308.213 306.977 308.599 307.149C308.984 307.32 309.311 307.601 309.538 307.956C309.766 308.311 309.885 308.726 309.88 309.147C309.874 309.569 309.746 309.98 309.51 310.33C308.252 312.319 306.524 313.968 304.479 315.131C302.433 316.294 300.132 316.936 297.78 317C286.94 317.27 285.23 305.42 283.21 306.81C280.49 308.7 284.48 313.36 287.6 316.38C287.899 316.667 288.109 317.034 288.206 317.437C288.302 317.84 288.28 318.262 288.143 318.653C288.006 319.044 287.76 319.388 287.433 319.642C287.106 319.897 286.713 320.053 286.3 320.09C277.54 320.93 266.58 316.58 266.5 305.09C266.42 292.15 262.25 293.29 261.39 286.74C260.48 279.86 265.27 271.86 275.13 270.05C275.527 269.978 275.935 270.018 276.31 270.166C276.685 270.314 277.011 270.563 277.252 270.887C277.492 271.211 277.637 271.595 277.67 271.997C277.704 272.398 277.624 272.801 277.44 273.16C275.03 277.89 271.44 285.76 274.62 285.72C278.08 285.72 273.04 263.14 303.05 270.46C303.412 270.549 303.745 270.731 304.016 270.987C304.287 271.243 304.487 271.565 304.597 271.921C304.707 272.278 304.722 272.657 304.642 273.021C304.562 273.385 304.389 273.722 304.14 274L304.04 274.11C303.713 274.473 303.519 274.935 303.489 275.422C303.459 275.91 303.595 276.392 303.874 276.793C304.154 277.193 304.56 277.486 305.028 277.626C305.496 277.765 305.997 277.742 306.45 277.56C310.11 276.04 315.61 276.29 322.92 283.4" fill="#FE6183"/>
      <path d="M245.13 327.88C245.13 327.88 248.61 297.77 266.83 297.77" stroke="#FE6183" stroke-width="2" stroke-miterlimit="10"/>   
    </g>

    <path d="M41.13 329H319.13" stroke="white" stroke-width="2" style="opacity: 0">
      <set
        attributeName="opacity"
        to="1"
        begin="animSuitcase.begin"
      />

      <animateTransform
        id="moveLine"
        attributeName="transform"
        type="translate"
        values="-400 0; 0 0"
        keyTimes="0; 1"
        keySplines="0 0 0.4 1"
        calcMode="spline"
        dur="1s" 
        additive="sum"
        begin="animSuitcase.begin"
        fill="freeze"
      />

      <animate 
        attributeName="d"
        begin="moveLine.end - 0.45s"
        keyTimes="0; 1"
        keySplines="0 0 0.4 1"
        calcMode="spline"
        dur="0.5s"
        values="M41.13 329H319.13;
                M147.13 328.88H283.79"
        fill="freeze"
      />
    </path>

    <path id="flySuitcase" d="M171.174 128.082c24.19-9.24 29.8-15.84 29.42-20.44-1.24-15.13-69.69-38.78-112.42-6.56-2.93 2.21-31.66 24.52-29 54 3.54 39.18 59.83 61.15 75.7 67.35 53.65 20.94 94.43 8.79 101.78 27.18 2.89 7.25.78 19.69-21.48 42.47" stroke="#000" stroke-miterlimit="10" opacity="0"/>
</svg>
