<svg width="350" height="330" viewBox="0 0 350 330" fill="none" xmlns="http://www.w3.org/2000/svg">
<g id="Prize1">
<g 
    id="airship_fly"
>
    <!-- <animate
        attributeType="CSS" attributeName="opacity" 
        from="0" to="1" dur="1s" repeatCount="1"
        begin="0s"
        id="flyAnim1" 
        fill="freeze"
    /> -->

    <animate
        attributeType="CSS" attributeName="opacity" 
        from="1" to="0" dur="0.4s" repeatCount="1"
        begin="4.5s"
        fill="freeze"
    />
<g id="air_ship">
<g id="bottom_wings">
  <animateTransform
      attributeName="transform" 
      type="translate"
      values="0 0; 0 -3; 0 0; 0 3; 0 0"
      keyTimes = "0; 0.25; 0.5; 0.75; 1"
      dur="2s"
      begin="0s"
      repeatCount="3"
    />
<path id="fill1" d="M 123.2 173.3 H 132.4 C 132.8 173.3 133.3 173.4 133.7 173.6 C 134.1 173.8 134.4 174 134.7 174.3 C 135 174.6 135.3 175 135.4 175.4 C 135.6 175.8 135.7 176.2 135.7 176.6 V 182.3 C 135.7 182.8 135.6 183.2 135.4 183.6 C 135.3 184 135 184.4 134.7 184.7 C 134.4 185 134.1 185.2 133.7 185.4 C 133.3 185.6 132.8 185.7 132.4 185.7 H 115.6 C 115.2 185.7 114.9 185.5 114.6 185.3 C 114.4 185 114.3 184.7 114.3 184.3 V 182.3 C 114.3 179.9 115.2 177.7 116.9 176 C 118.6 174.3 120.9 173.3 123.3 173.3" fill="#068e4d"/>
<path id="border1" d="M 123.2 173.3 H 132.4 C 132.8 173.3 133.3 173.4 133.7 173.6 C 134.1 173.8 134.4 174 134.7 174.3 C 135 174.6 135.3 175 135.4 175.4 C 135.6 175.8 135.7 176.2 135.7 176.6 V 182.3 C 135.7 182.8 135.6 183.2 135.4 183.6 C 135.3 184 135 184.4 134.7 184.7 C 134.4 185 134.1 185.2 133.7 185.4 C 133.3 185.6 132.8 185.7 132.4 185.7 H 115.6 C 115.2 185.7 114.9 185.5 114.6 185.3 C 114.4 185 114.3 184.7 114.3 184.3 V 182.3 C 114.3 179.9 115.2 177.7 116.9 176 C 118.6 174.3 120.8 173.3 123.2 173.3 V 173.3 Z" stroke="white" stroke-width="2" stroke-linecap="round" stroke-linejoin="round"/>
<path id="fill2" d="M 123.2 207.4 H 132.4 C 132.8 207.4 133.3 207.3 133.7 207.1 C 134.1 207 134.4 206.7 134.7 206.4 C 135 206.1 135.3 205.8 135.4 205.4 C 135.6 205 135.7 204.5 135.7 204.1 V 198.4 C 135.7 197.9 135.6 197.5 135.4 197.1 C 135.3 196.7 135 196.4 134.7 196 C 134.4 195.7 134.1 195.5 133.7 195.3 C 133.3 195.2 132.8 195.1 132.4 195.1 H 115.6 C 115.2 195.1 114.9 195.2 114.6 195.5 C 114.4 195.7 114.3 196.1 114.3 196.4 V 198.4 C 114.3 200.8 115.2 203.1 116.9 204.8 C 118.6 206.5 120.9 207.4 123.3 207.4" fill="#068e4d"/>
<path id="border2" d="M 123.2 207.4 H 132.4 C 132.8 207.4 133.3 207.3 133.7 207.1 C 134.1 207 134.4 206.7 134.7 206.4 C 135 206.1 135.3 205.8 135.4 205.4 C 135.6 205 135.7 204.5 135.7 204.1 V 198.4 C 135.7 197.9 135.6 197.5 135.4 197.1 C 135.3 196.7 135 196.4 134.7 196 C 134.4 195.7 134.1 195.5 133.7 195.3 C 133.3 195.2 132.8 195.1 132.4 195.1 H 115.6 C 115.2 195.1 114.9 195.2 114.6 195.5 C 114.4 195.7 114.3 196.1 114.3 196.4 V 198.4 C 114.3 200.8 115.2 203.1 116.9 204.8 C 118.6 206.4 120.8 207.4 123.2 207.4 V 207.4 Z" stroke="white" stroke-width="2" stroke-linecap="round" stroke-linejoin="round"/>
</g>
<g id="cabin">
    <animateTransform 
      attributeName="transform" 
      type="scale"
      values="1 1; 1 0.99; 1 1; 1 0.99; 1 1"
      keyTimes = "0; 0.25; 0.5; 0.75; 1"
      dur="2s"
      begin="0s"
      repeatCount="3"
    />
<path id="cabin_2" d="M 175.4 249.3 H 223.8 C 226.9 249.3 229.8 248.2 232.2 246.3 C 234.6 244.3 236.2 241.6 236.8 238.6 L 240.5 220.3 H 172.4 V 246.2 C 172.4 247 172.7 247.8 173.3 248.4 C 173.8 249 174.6 249.3 175.4 249.3 V 249.3 Z" stroke="white" stroke-width="2" stroke-linecap="round" stroke-linejoin="round"/>
<path id="window3" d="M 235.8 241.7 H 226.6 C 224.4 241.7 222.3 240.8 220.7 239.2 C 219.2 237.7 218.3 235.6 218.3 233.4 V 220.3" stroke="white" stroke-width="2" stroke-miterlimit="10" stroke-linecap="round"/>
<path id="window2" d="M 204.3 231.9 H 202.2 C 201.3 231.9 200.4 232.3 199.8 232.9 C 199.1 233.5 198.8 234.4 198.8 235.3 V 238.3 C 198.8 239.2 199.1 240 199.8 240.7 C 200.4 241.3 201.3 241.7 202.2 241.7 H 204.3 C 205.2 241.7 206 241.3 206.7 240.7 C 207.3 240 207.7 239.2 207.7 238.3 V 235.3 C 207.7 234.9 207.6 234.4 207.4 234 C 207.3 233.6 207 233.2 206.7 232.9 C 206.4 232.6 206 232.3 205.6 232.1 C 205.1 232 204.7 231.9 204.3 231.9 V 231.9 Z" stroke="white" stroke-width="2" stroke-linecap="round" stroke-linejoin="round">
    <set
        attributeType="CSS" attributeName="opacity" 
        to="0" begin="animRock.begin"
    />
</path>
<path id="window1" d="M 185.6 231.9 H 183.6 C 182.7 231.9 181.8 232.3 181.2 232.9 C 180.5 233.5 180.2 234.4 180.2 235.3 V 238.3 C 180.2 239.2 180.5 240 181.2 240.7 C 181.8 241.3 182.7 241.7 183.6 241.7 H 185.6 C 186.6 241.7 187.4 241.3 188.1 240.7 C 188.7 240 189.1 239.2 189.1 238.3 V 235.3 C 189.1 234.4 188.7 233.5 188.1 232.9 C 187.4 232.3 186.6 231.9 185.6 231.9 V 231.9 Z" stroke="white" stroke-width="2" stroke-linecap="round" stroke-linejoin="round"/>
</g>
<g id="ballon">
<path id="fill" d="M 205 227.1 C 248.4 227.1 279.9 211.5 279.9 190.1 C 279.9 168.6 248.4 153.1 205 153.1 C 177.1 153.1 149.6 166.6 131.5 177.9 C 129.5 179.2 127.8 181 126.6 183.1 C 125.5 185.3 124.9 187.6 124.9 190.1 C 124.9 192.5 125.5 194.9 126.6 197 C 127.8 199.1 129.5 200.9 131.5 202.2 C 149.6 213.5 177.1 227 205 227" fill="#068e4d"/>
<path id="border" d="M 205 227.1 C 248.4 227.1 279.9 211.5 279.9 190.1 C 279.9 168.6 248.4 153.1 205 153.1 C 177.1 153.1 149.6 166.6 131.5 177.9 C 129.5 179.2 127.8 181 126.6 183.1 C 125.5 185.3 124.9 187.6 124.9 190.1 C 124.9 192.5 125.5 194.9 126.6 197 C 127.8 199.1 129.5 200.9 131.5 202.2 C 149.6 213.5 177.1 227.1 205 227.1 Z" stroke="white" stroke-width="2"/>
<path id="top" d="M 205 178.5 C 176.8 178.5 148.9 181.8 132.2 186.1 C 128.2 187.1 126.2 188.8 126.1 190.4 C 126 188.2 126.5 185.9 127.6 183.9 C 128.7 181.9 130.3 180.2 132.2 179 C 148.9 168.5 176.8 154.3 205 154.3 C 249.8 154.3 278.6 170.3 278.6 190.1 C 278.6 190.2 278.6 190.3 278.6 190.4 C 278.3 182.5 249.5 178.5 205 178.5" fill="#36e69a"/>
<path id="bottom" d="M 132.2 195.1 C 148.9 199.4 176.8 205.1 205 205.1 C 249.1 205.1 277.7 198.8 278.6 190.9 C 277.7 210.3 249.1 225.8 205 225.8 C 176.8 225.8 148.9 211.6 132.2 201.1 C 130.4 200 129 198.5 127.9 196.8 C 126.9 195 126.3 193 126.2 190.9 C 126.4 192.6 128.4 194.1 132.2 195.1" fill="#068e4d"/>
<path id="center" 
    d="M 132.2 186.1 C 148.9 181.8 176.8 176.1 205 176.1 C 249.5 176.1 278.3 182.6 278.6 190.5 C 278.6 190.7 278.6 190.8 278.6 191 C 277.8 198.9 249.2 205.2 205 205.2 C 176.8 205.2 148.9 199.4 132.2 195.2 C 128.4 194.2 126.4 192.7 126.2 191.1 V 190.5 C 126.3 188.8 128.3 187.2 132.3 186.2"
    fill="#25b774">

    <animateTransform 
      attributeName="transform" 
      type="translate"
      values="0 0; 0 1; 0; 0 -1; 0"
      keyTimes = "0; 0.25; 0.5; 0.75; 1" 
      dur="2s"
      repeatCount="3"
    />

    <animate    
      attributeName="d"
      values="M132.18 186.12C148.92 181.85 176.76 176.12 204.99 176.12C249.52 176.12 278.25 182.55 278.6 190.5C278.6 190.67 278.6 190.84 278.6 191.01C277.75 198.87 249.15 205.18 205 205.18C176.77 205.18 148.93 199.42 132.19 195.18C128.4 194.18 126.4 192.65 126.19 191.05V190.54C126.32 188.85 128.34 187.18 132.29 186.17;
              M132.18 185.12C148.92 180.85 176.76 177.12 204.99 177.12C249.52 177.12 278.25 181.55 278.6 189.5C278.6 189.67 278.6 189.84 278.6 190.01C277.75 197.87 249.15 206.18 205 206.18C176.77 206.18 148.93 198.42 132.19 194.18C128.4 193.18 126.4 191.65 126.19 190.05V189.54C126.32 187.85 128.34 186.18 132.29 185.17;
              M132.18 186.12C148.92 181.85 176.76 176.12 204.99 176.12C249.52 176.12 278.25 182.55 278.6 190.5C278.6 190.67 278.6 190.84 278.6 191.01C277.75 198.87 249.15 205.18 205 205.18C176.77 205.18 148.93 199.42 132.19 195.18C128.4 194.18 126.4 192.65 126.19 191.05V190.54C126.32 188.85 128.34 187.18 132.29 186.17;
              M132.18 186.12C148.92 181.85 176.76 174.12 204.99 174.12C249.52 174.12 278.25 182.55 278.6 190.5C278.6 190.67 278.6 190.84 278.6 191.01C277.75 198.87 249.15 203.18 205 203.18C176.77 203.18 148.93 199.42 132.19 195.18C128.4 194.18 126.4 192.65 126.19 191.05V190.54C126.32 188.85 128.34 187.18 132.29 186.17;
              M132.18 186.12C148.92 181.85 176.76 176.12 204.99 176.12C249.52 176.12 278.25 182.55 278.6 190.5C278.6 190.67 278.6 190.84 278.6 191.01C277.75 198.87 249.15 205.18 205 205.18C176.77 205.18 148.93 199.42 132.19 195.18C128.4 194.18 126.4 192.65 126.19 191.05V190.54C126.32 188.85 128.34 187.18 132.29 186.17"
      keyTimes = "0; 0.25; 0.5; 0.75; 1"
      dur="2s"
      begin="0s"
      repeatCount="3"
    />
  </path>
</g>
<g id="top_wings">
  <animateTransform 
      attributeName="transform" 
      type="translate"
      values="0 0; 0 3; 0 -3; 0 0"
      keyTimes = "0; 0.25; 0.75; 1"
      dur="2s"
      begin="0s"
      repeatCount="3"
    />
<path id="fill1" d="M 123.2 173.3 H 132.4 C 132.8 173.3 133.3 173.4 133.7 173.6 C 134.1 173.8 134.4 174 134.7 174.3 C 135 174.6 135.3 175 135.4 175.4 C 135.6 175.8 135.7 176.2 135.7 176.6 V 182.3 C 135.7 182.8 135.6 183.2 135.4 183.6 C 135.3 184 135 184.4 134.7 184.7 C 134.4 185 134.1 185.2 133.7 185.4 C 133.3 185.6 132.8 185.7 132.4 185.7 H 115.6 C 115.2 185.7 114.9 185.5 114.6 185.3 C 114.4 185 114.3 184.7 114.3 184.3 V 182.3 C 114.3 179.9 115.2 177.7 116.9 176 C 118.6 174.3 120.9 173.3 123.3 173.3" fill="#068e4d"/>
<path id="border1" d="M 123.2 173.3 H 132.4 C 132.8 173.3 133.3 173.4 133.7 173.6 C 134.1 173.8 134.4 174 134.7 174.3 C 135 174.6 135.3 175 135.4 175.4 C 135.6 175.8 135.7 176.2 135.7 176.6 V 182.3 C 135.7 182.8 135.6 183.2 135.4 183.6 C 135.3 184 135 184.4 134.7 184.7 C 134.4 185 134.1 185.2 133.7 185.4 C 133.3 185.6 132.8 185.7 132.4 185.7 H 115.6 C 115.2 185.7 114.9 185.5 114.6 185.3 C 114.4 185 114.3 184.7 114.3 184.3 V 182.3 C 114.3 179.9 115.2 177.7 116.9 176 C 118.6 174.3 120.8 173.3 123.2 173.3 V 173.3 Z" stroke="white" stroke-width="2" stroke-linecap="round" stroke-linejoin="round"/>
<path id="fill2" d="M 123.2 207.4 H 132.4 C 132.8 207.4 133.3 207.3 133.7 207.1 C 134.1 207 134.4 206.7 134.7 206.4 C 135 206.1 135.3 205.8 135.4 205.4 C 135.6 205 135.7 204.5 135.7 204.1 V 198.4 C 135.7 197.9 135.6 197.5 135.4 197.1 C 135.3 196.7 135 196.4 134.7 196 C 134.4 195.7 134.1 195.5 133.7 195.3 C 133.3 195.2 132.8 195.1 132.4 195.1 H 115.6 C 115.2 195.1 114.9 195.2 114.6 195.5 C 114.4 195.7 114.3 196.1 114.3 196.4 V 198.4 C 114.3 200.8 115.2 203.1 116.9 204.8 C 118.6 206.5 120.9 207.4 123.3 207.4" fill="#068e4d"/>
<path id="border2" d="M 123.2 207.4 H 132.4 C 132.8 207.4 133.3 207.3 133.7 207.1 C 134.1 207 134.4 206.7 134.7 206.4 C 135 206.1 135.3 205.8 135.4 205.4 C 135.6 205 135.7 204.5 135.7 204.1 V 198.4 C 135.7 197.9 135.6 197.5 135.4 197.1 C 135.3 196.7 135 196.4 134.7 196 C 134.4 195.7 134.1 195.5 133.7 195.3 C 133.3 195.2 132.8 195.1 132.4 195.1 H 115.6 C 115.2 195.1 114.9 195.2 114.6 195.5 C 114.4 195.7 114.3 196.1 114.3 196.4 V 198.4 C 114.3 200.8 115.2 203.1 116.9 204.8 C 118.6 206.4 120.8 207.4 123.2 207.4 V 207.4 Z" stroke="white" stroke-width="2" stroke-linecap="round" stroke-linejoin="round"/>
</g>
</g>
<g id="cloud2">
    <animateTransform 
      attributeName="transform" 
      type="translate"
      from="150"
      to="0" 
      dur="2s"
      begin="0s"
      repeatCount="1"
      fill="freeze" 
    />

    <animate
      attributeName="opacity" 
      attributeType="CSS"
      from="1"
      to="0" 
      dur="0.5s"
      begin="1.5s"
      repeatCount="1"
      fill="freeze" 
    />
<path id="bottom_cloud_part" d="M 69 107.8 H 131.9" stroke="white" stroke-width="2" stroke-miterlimit="10" stroke-linecap="round"/>
<g id="top_cloud_part">
    <animateTransform 
      attributeName="transform" 
      type="translate"
      from="20"
      to="0" 
      dur="5s"
      begin="0s"
      repeatCount="1"
    />
<path id="Vector" d="M 41.8 97.5 H 77.1 C 77.1 94.3 78.4 91.1 80.7 88.8 C 83 86.4 86.2 85.1 89.5 85.1 C 92.7 85.1 95.9 86.4 98.2 88.8 C 100.6 91.1 101.9 94.3 101.9 97.5 H 119.8" stroke="white" stroke-width="2" stroke-miterlimit="10" stroke-linecap="round"/>
</g>
</g>
<g id="cloud1" style="opacity: 0">
    <animateTransform 
      attributeName="transform" 
      type="translate"
      from="50 0"
      to="-190" 
      dur="3s"
      begin="1.5s"
      repeatCount="1"
    />

    <animate
      attributeName="opacity" 
      attributeType="CSS"
      from="0"
      to="1" 
      dur="0.5s"
      begin="1.5s"
      repeatCount="1"
      fill="freeze" 
    />

    <animate
      attributeName="opacity"
      attributeType="CSS"
      from="1"
      to="0" 
      dur="0.5s"
      begin="3.5s"
      repeatCount="1"
      fill="freeze" 
    />

<path id="bottom_cloud_part_2" d="M 259 93.2 H 298.7" stroke="white" stroke-width="2" stroke-miterlimit="10" stroke-linecap="round"/>
<g id="top_cloud_part_2">
    <animateTransform 
      attributeName="transform" 
      type="translate"
      from="0"
      to="-20" 
      dur="5s"
      begin="c1Anim.begin"
      repeatCount="1"
    />
<path id="Vector_2" d="M 278.8 82.9 H 251.4 C 251.4 79.6 250.1 76.5 247.8 74.1 C 245.4 71.8 242.3 70.5 239 70.5 C 235.7 70.5 232.5 71.8 230.2 74.1 C 227.9 76.5 226.6 79.6 226.6 82.9 H 208.7" stroke="white" stroke-width="2" stroke-miterlimit="10" stroke-linecap="round"/>
<path id="Vector_3" d="M 287 82.9 H 309.2" stroke="white" stroke-width="2" stroke-miterlimit="10" stroke-linecap="round"/>
</g>
</g>
<path id="bottom_line" d="M 106.3 201.2 H 84" stroke="white" stroke-width="2" stroke-miterlimit="10" stroke-linecap="round">
    <animate    
      attributeName="d"
      values="M106.25 201.23H84.05; M 105.86,201.23 H 77; M106.25 201.23H84.05"
      dur="0.55s"
      begin="0s"
      repeatCount="12"
    />
</path>
<path id="center_line" d="M 106.3 191 H 68.8" stroke="white" stroke-width="2" stroke-miterlimit="10" stroke-linecap="round">
    <animate    
      attributeName="d"
      values="M106.25 190.98H68.77; M 106.1,190.98 H 64.24; M106.25 190.98H68.77"
      dur="0.7s"
      begin="0s"
      repeatCount="11"
    />
</path>
<path id="top_line" d="M 106.3 179.5 H 84" stroke="white" stroke-width="2" stroke-miterlimit="10" stroke-linecap="round">
    <animate    
      attributeName="d"
      values="M106.25 179.49H84.05; M 105.96,179.49 H 77.35; M106.25 179.49H84.05"
      dur="0.4s"
      begin="0s"
      repeatCount="15"
    />
</path>

<g id="rock">
<path id="Vector_4" d="M 289.9 326.9 H 244.9 L 212.8 295.6 C 212.5 295.3 212 295.1 211.6 295.1 C 211.1 295.1 210.7 295.3 210.4 295.6 L 200.2 305.8 C 199.8 306.1 199.4 306.2 199 306.2 C 198.6 306.2 198.2 306.1 197.9 305.8 L 178.9 285.6 C 178.5 285.3 177.9 285.1 177.4 285.1 C 176.8 285.1 176.2 285.3 175.8 285.6 L 149.4 311.3 C 149.1 311.6 148.7 311.7 148.3 311.7 C 147.9 311.7 147.5 311.6 147.1 311.3 L 144.5 308.4 C 144.2 308.1 143.8 307.9 143.4 307.9 C 142.9 307.9 142.5 308.1 142.2 308.4 L 124.6 328 H 80.8" stroke="white" stroke-width="2" stroke-miterlimit="10" stroke-linecap="round">
    <animate    
      attributeName="d"
      values="M289.94 327.88H244.88L212.8 296.58C212.459 296.292 212.027 296.134 211.58 296.134C211.133 296.134 210.701 296.292 210.36 296.58L200.16 306.81C199.847 307.08 199.448 307.229 199.035 307.229C198.622 307.229 198.223 307.08 197.91 306.81L178.91 286.64C178.477 286.273 177.928 286.072 177.36 286.072C176.792 286.072 176.243 286.273 175.81 286.64L149.39 312.28C149.078 312.552 148.679 312.702 148.265 312.702C147.851 312.702 147.452 312.552 147.14 312.28L144.51 309.36C144.195 309.071 143.783 308.911 143.355 308.911C142.927 308.911 142.515 309.071 142.2 309.36L124.63 329H80.78;
              M289.94 329H244.88L212.8 327C212.459 326.712 212.027 326.554 211.58 326.554C211.133 326.554 210.701 326.712 210.36 327L200.16 328C199.847 328.27 199.448 328.419 199.035 328.419C198.622 328.419 198.222 328.27 197.91 328L178.91 327C178.5 327 177.568 326.5 177 326.5C176.432 326.5 175.69 327 175 327L153 328C152.688 328.272 148.679 328.422 148.265 328.422C147.851 328.422 147.452 328.272 147.14 328L144.51 327C144.195 326.711 143.783 326.551 143.355 326.551C142.927 326.551 142 326.551 140 327L124.63 329H80.78"
      keyTimes="0; 1"
      calcMode="spline" 
      keySplines="0.37, 0, 0.63, 1"
      dur="0.3s"
      begin="4s"
      repeatCount="1"
      id="animRock"
      fill="freeze" 
    />

    <animate
      attributeName="opacity" 
      attributeType="CSS"
      from="1"
      to="0" 
      dur="0.3s"
      begin="animRock.end - 0.3s"
      repeatCount="1"
      fill="freeze" 
    />
</path>
<!-- <path id="Vector_5" d="M289.94 328H200.15C199.29 328 198.59 328 197.9 328H178.9C177.4 328 176.67 328 175.8 328H143.5C142.41 328 141.84 328 141.19 328H80.78" stroke="white" stroke-width="2" stroke-miterlimit="10" stroke-linecap="round"/> -->
</g>
</g>
<g id="airship_in" clip-path="url(#clip0)">
<g id="in_cloud" clip-path="url(#clip1)">
<g id="Group" style="opacity: 0">
    <set
      attributeType="CSS" attributeName="opacity" 
      to="1" begin="animWindowIn.end"
    />

    <animateTransform 
      attributeName="transform" 
      type="translate"
      from="70 0"
      to="-70 0" 
      dur="3s"
      begin="animWindowIn.end"
      repeatCount="indefinite"
      id="animCloudIn"
      fill="freeze"
    />

<path id="Vector_6" d="M 236.7 198 H 273" stroke="white" stroke-width="2" stroke-miterlimit="10" stroke-linecap="round">
    <animateTransform 
      attributeName="transform" 
      type="translate"
      from="0"
      to="10" 
      dur="3s"
      begin="animCloudIn.begin"
      repeatCount="indefinite"
    />
</path>
<path id="Vector_7" d="M 221 192.1 H 241.4 C 241.4 190.2 242.1 188.4 243.5 187 C 244.8 185.7 246.6 184.9 248.5 184.9 C 250.4 184.9 252.2 185.7 253.6 187 C 254.9 188.4 255.7 190.2 255.7 192.1 H 266" stroke="white" stroke-width="2" stroke-miterlimit="10" stroke-linecap="round"/>
</g>
</g>
<g id="skiing" style="opacity: 0">
    <animate
      attributeName="opacity" 
      attributeType="CSS"
      from="0"
      to="1" 
      dur="0.3s"
      begin="animSkiing.begin"
      repeatCount="1"
      fill="freeze" 
    />

    <animateTransform 
      attributeName="transform" 
      type="translate"
      values=" -30 0; 0 0"
      keyTimes="0; 1"
      dur="0.5s"
      calcMode="spline"
      keySplines="0 0 0.2 1"
      begin="animWindowIn.end - 0.2s"
      repeatCount="1"
      id="animSkiing"
    />

    <animateTransform
      attributeName="transform"
      type="translate"
      values="0 0; 30 0; -15 0; 5 0; 0 0"
      keyTimes="0; 0.4; 0.7; 0.9; 1"
      dur="0.6s"
      begin="animSkiing.end - 0.3s"
      fill="freeze"
    />

    <animateTransform 
      attributeName="transform"
      type="skewX"
      values="0; -5; 2.5; -1; 0"
      keyTimes="0; 0.4; 0.7; 0.9; 1"
      dur="0.6s"
      begin="animSkiing.end - 0.3s"
      additive="sum"
      fill="freeze"
    />

<path id="Vector_8" d="M 91.1 327.8 C 90.6 327.7 90 327.5 89.7 327 C 89.3 326.6 89.1 326 89.1 325.4 L 102.8 132.3 C 103.9 116.8 98 110.3 94 107.8 C 93.8 107.6 93.7 107.4 93.6 107.2 C 93.5 106.9 93.4 106.6 93.5 106.4 C 93.5 106.1 93.7 105.9 93.9 105.7 C 94.1 105.5 94.3 105.4 94.6 105.3 C 103 104 122.2 104 120 134.2 L 106.4 326.7 C 106.4 327.2 106.1 327.8 105.7 328.2 C 105.2 328.5 104.7 328.7 104.1 328.7 L 91.1 327.8 Z" fill="white"/>
<path id="Vector_9" d="M 124.5 328.2 C 124.2 328.2 123.9 328.1 123.7 328 C 123.4 327.9 123.2 327.7 123 327.5 C 122.8 327.3 122.6 327.1 122.5 326.8 C 122.4 326.5 122.3 326.2 122.3 325.9 L 124.6 132.3 C 124.8 116.8 118.5 110.7 114.4 108.4 C 114.2 108.3 114 108.1 113.9 107.8 C 113.8 107.6 113.7 107.3 113.8 107 C 113.8 106.8 113.9 106.5 114.1 106.3 C 114.3 106.1 114.5 106 114.8 105.9 C 123.2 104 142.3 102.9 141.9 133.2 L 139.7 326.1 C 139.7 326.4 139.6 326.7 139.5 327 C 139.4 327.2 139.2 327.5 139 327.7 C 138.8 327.9 138.6 328.1 138.3 328.2 C 138.1 328.3 137.8 328.3 137.5 328.3 L 124.5 328.2 Z" fill="white"/>
</g>
<g id="in_window"  style="opacity: 0">
    <set
      attributeType="CSS" attributeName="opacity" 
      to="1" begin="animRock.begin"
    />

<path id="Vector_10" d="M 275 225.4 H 257.9 C 253.2 225.4 248.8 223.5 245.5 220.3 C 242.2 217 240.4 212.5 240.3 207.8 V 170 C 240.4 165.3 242.2 160.9 245.5 157.6 C 248.8 154.3 253.2 152.4 257.9 152.4 H 275 C 279.6 152.4 284.1 154.3 287.4 157.6 C 290.7 160.9 292.5 165.4 292.5 170 V 207.8 C 292.5 212.5 290.7 216.9 287.4 220.2 C 284.1 223.5 279.7 225.4 275 225.4 V 225.4 Z" stroke="white" stroke-width="2">
    <animate    
      attributeName="d"
      values="M204.25 231.88H202.2C201.288 231.885 200.416 232.251 199.773 232.898C199.131 233.544 198.77 234.418 198.77 235.33V238.25C198.77 239.162 199.131 240.036 199.773 240.682C200.416 241.329 201.288 241.695 202.2 241.7H204.25C205.162 241.695 206.034 241.329 206.677 240.682C207.319 240.036 207.68 239.162 207.68 238.25V235.33C207.681 234.878 207.594 234.431 207.422 234.013C207.25 233.595 206.998 233.215 206.68 232.895C206.361 232.574 205.983 232.32 205.566 232.146C205.149 231.972 204.702 231.881 204.25 231.88Z;
              M272.694 152.5H260.5C253.5 152.5 248.325 153.69 244.5 158.5C239.331 165 240 170.867 240 177.647V199.353C240 206.133 239.5 213.5 244 218.5C248.95 224 253 225.5 260.5 225.5H272.694C278.119 225.463 282.7 225.5 289 218.5C293.5 213.5 292.5 206.28 292.5 199.5V177.5C292.506 174.14 293.023 169.107 292 166C290.977 162.893 290.392 161.379 288.5 159C286.602 156.614 284.48 155.293 282 154C279.52 152.707 275.383 152.507 272.694 152.5Z"
      keyTimes = "0; 1"
      dur="0.4s"
      repeatCount="1"
      begin="animRock.begin"
      id="animWindowIn"
      fill="freeze"
    />
</path>
</g>
<g id="chair" style="opacity: 0">
   <animate
      attributeName="opacity" 
      attributeType="CSS"
      from="0"
      to="1" 
      dur="0.3s"
      begin="animWindowIn.end - 0.2s"
      repeatCount="1"
      fill="freeze" 
    />

    <animateTransform 
      attributeName="transform" 
      type="translate"
      values=" -30 0; 0 0"
      keyTimes="0; 1"
      dur="0.4s"
      begin="animWindowIn.end - 0.2s"
      repeatCount="1"
      calcMode="spline"
      keySplines="0 0 0.2 1"
      id="animChair"
      fill="freeze"
    />

<path id="Vector_11" d="M 257.5 259.8 H 196.8 V 245.6 H 251.8 C 254.5 245.6 257 246.7 258.9 248.5 C 260.7 250.4 261.8 252.9 261.8 255.6 C 261.7 256.7 261.3 257.8 260.5 258.6 C 259.7 259.4 258.6 259.8 257.5 259.8" fill="#a67ee5"/>
<path id="Vector_12" d="M 257.5 259.8 H 196.8 V 245.6 H 251.8 C 254.5 245.6 257 246.7 258.9 248.5 C 260.7 250.4 261.8 252.9 261.8 255.6 C 261.8 256.7 261.3 257.8 260.5 258.6 C 259.7 259.4 258.6 259.8 257.5 259.8 Z" stroke="white" stroke-width="2" stroke-miterlimit="10"/>
<path id="Vector_13" d="M 185.5 328.3 H 171.5 L 165.2 286.7 H 179.2 L 185.5 328.3 Z" fill="#a67ee5"/>
<path id="Vector_14" d="M 185.5 328.3 H 171.5 L 165.2 286.7 H 179.2 L 185.5 328.3 Z" stroke="white" stroke-width="2" stroke-miterlimit="10"/>
<path id="Vector_15" d="M 235 328.3 H 221.1 L 214.8 286.7 H 228.7 L 235 328.3 Z" fill="#a67ee5"/>
<path id="Vector_16" d="M 235 328.3 H 221.1 L 214.8 286.7 H 228.7 L 235 328.3 Z" stroke="white" stroke-width="2" stroke-miterlimit="10"/>
<path id="Vector_17" d="M 281.3 272.4 H 225.4 C 224.1 272.4 222.8 272 221.8 271.1 C 220.8 270.2 220.1 269 219.9 267.7 L 209.1 195.4 C 211.9 193.1 214 189.8 214.9 186.2 C 215.8 182.5 215.6 178.7 214.2 175.2 C 212.8 171.8 210.4 168.8 207.2 166.8 C 204 164.8 200.3 163.9 196.6 164.1 H 141.5 L 141.2 267 L 156.9 290.4 L 204.1 298.7 C 205.5 299.2 206.9 299.5 208.3 299.5 H 281.3 C 284.9 299.5 288.4 298.1 290.9 295.5 C 293.4 293 294.9 289.5 294.9 286 C 294.9 282.4 293.4 278.9 290.9 276.4 C 288.4 273.9 284.9 272.4 281.3 272.4" fill="#a67ee5"/>
<path id="Vector_18" d="M 281.3 272.4 H 225.4 C 224.1 272.4 222.8 272 221.8 271.1 C 220.8 270.2 220.1 269 219.9 267.7 L 209.1 195.4 C 211.9 193.1 214 189.8 214.9 186.2 C 215.8 182.5 215.6 178.7 214.2 175.2 C 212.8 171.8 210.4 168.8 207.2 166.8 C 204 164.8 200.3 163.9 196.6 164.1 H 141.5 L 141.2 267 L 156.9 290.4 L 204.1 298.7 C 205.5 299.2 206.9 299.5 208.3 299.5 H 281.3 C 284.8 299.4 288.1 297.9 290.6 295.3 C 293 292.8 294.3 289.5 294.3 286 C 294.3 282.5 293 279.1 290.6 276.6 C 288.1 274.1 284.8 272.6 281.3 272.4 V 272.4 Z" stroke="white" stroke-width="2" stroke-miterlimit="10"/>
<path id="Vector_19" d="M 162.4 267.7 L 151.6 195.4 C 153.9 193.5 155.6 191.1 156.7 188.3 C 157.8 185.5 158.2 182.5 157.8 179.6 C 157.5 176.6 156.3 173.8 154.6 171.4 C 152.8 169 150.5 167 147.8 165.8 C 145.1 164.5 142.1 163.9 139.1 164.1 C 136.2 164.3 133.3 165.3 130.8 166.9 C 128.2 168.5 126.2 170.7 124.7 173.3 C 123.3 175.9 122.6 178.9 122.6 181.8 C 122.6 183.6 122.8 185.4 123.3 187.1 L 138.7 289 C 139.1 291.9 140.6 294.6 142.8 296.5 C 145 298.5 147.9 299.5 150.9 299.5 H 223.9 C 227.4 299.4 230.7 298 233.2 295.5 C 235.6 292.9 237 289.5 237 286 C 237 282.5 235.6 279.1 233.2 276.6 C 230.7 274.1 227.4 272.6 223.9 272.5 H 167.9 C 166.6 272.5 165.3 272 164.3 271.1 C 163.3 270.2 162.6 269 162.4 267.7" fill="#a67ee5"/>
<path id="Vector_20" d="M 162.4 267.7 L 151.6 195.4 C 153.9 193.5 155.6 191.1 156.7 188.3 C 157.8 185.5 158.2 182.5 157.8 179.6 C 157.5 176.6 156.3 173.8 154.6 171.4 C 152.8 169 150.5 167 147.8 165.8 C 145.1 164.5 142.1 163.9 139.1 164.1 C 136.2 164.3 133.3 165.3 130.8 166.9 C 128.2 168.5 126.2 170.7 124.7 173.3 C 123.3 175.9 122.6 178.9 122.6 181.8 C 122.6 183.6 122.8 185.4 123.3 187.1 L 138.7 289 C 139.1 291.9 140.6 294.6 142.8 296.5 C 145 298.5 147.9 299.5 150.9 299.5 H 223.9 C 227.4 299.4 230.7 298 233.2 295.5 C 235.6 292.9 237 289.5 237 286 C 237 282.5 235.6 279.1 233.2 276.6 C 230.7 274.1 227.4 272.6 223.9 272.5 H 167.9 C 166.6 272.5 165.3 272 164.3 271.1 C 163.3 270.2 162.6 269 162.4 267.7 Z" stroke="white" stroke-width="2" stroke-miterlimit="10"/>
<path id="Vector_21" d="M 206.3 259.8 H 134.3 L 132.1 245.6 H 200.6 C 203.2 245.6 205.7 246.7 207.6 248.5 C 209.5 250.4 210.5 252.9 210.5 255.6 C 210.5 256.7 210 257.8 209.3 258.6 C 208.5 259.4 207.4 259.8 206.3 259.8" fill="#a67ee5"/>
<path id="Vector_22" d="M 206.3 259.8 H 134.3 L 132.1 245.6 H 200.6 C 203.2 245.6 205.7 246.7 207.6 248.5 C 209.5 250.4 210.5 252.9 210.5 255.6 C 210.5 256.7 210.1 257.8 209.3 258.6 C 208.5 259.4 207.4 259.8 206.3 259.8 Z" stroke="white" stroke-width="2" stroke-miterlimit="10"/>
<path id="Vector_23" d="M 151.6 195.4 H 209.1" stroke="white" stroke-width="2" stroke-miterlimit="10" stroke-linecap="round"/>
</g>
<g id="plant" style="opacity: 0">
    <animate
      attributeName="opacity" 
      attributeType="CSS"
      from="0"
      to="1" 
      dur="0.3s"
      begin="animWindowIn.end + 0.4s"
      repeatCount="1"
      fill="freeze"
    />

    <animateTransform 
      attributeName="transform" 
      type="translate"
      values=" -30 0; 0 0"
      keyTimes="0; 1"
      dur="0.5s"
      calcMode="spline"
      keySplines="0 0 0.2 1"
      begin="animWindowIn.end + 0.4s"
      repeatCount="1"
      id="animPlant"
      fill="freeze"
    />

    <animateTransform attributeName="transform"
      type="rotate"
      values="0 160 350; 5 160 350; -2.5 160 350; 2.5 160 350; 0 160 350"
      dur="0.6s"
      begin="animPlant.end - 0.3s"
      id="transformPlant"
      fill="freeze"
    />

    <animateTransform attributeName="transform"
      type="skewX"
      values="0; 0.8; 0; 0.2; 0"
      keyTimes="0; 0.4; 0.7; 0.9; 1"
      dur="0.6s"
      begin="animPlant.end - 0.3s"
      additive="sum"
      fill="freeze"
    />

    <animateTransform attributeName="transform"
      type="rotate"
      values="0 160 350; 1 160 350; -0.5 160 350; 0 160 350"
      dur="2s"
      id="idlePlant"
      begin="idlePlant.end + 5s; animPlant.end + 5s"
    />

    <animateTransform attributeName="transform"
      type="skewX"
      values="0; 0.2; 0;"
      keyTimes="0; 0.4; 1;"
      dur="2s"
      begin="idlePlant.end + 5s; animPlant.end + 5s;"
      additive="sum"
    />

<path id="Vector_24" d="M 79.2 194 C 85.4 202.3 90.7 211.3 94.8 220.9 C 87.6 213.5 80.9 205.6 74.7 197.3 C 68.5 189.1 62.8 180.4 57.6 171.5 C 65.7 178.1 72.9 185.7 79.2 194 Z" fill="#36e69a"/>
<path id="Vector_25" d="M 80.9 214.4 C 89.3 220.3 97 227.2 103.7 234.9 C 94.8 230.2 86.2 224.9 77.9 219.2 C 69.7 213.4 61.9 207.2 54.5 200.5 C 63.8 204 72.7 208.7 80.9 214.4 Z" fill="#36e69a"/>
<path id="Vector_26" d="M 93.7 205.5 C 96.4 215.5 99.8 225.3 103.7 234.9 C 103.5 224.6 102 214.3 99.2 204.3 C 96.4 194.1 92.3 184.2 87.2 174.9 C 88.7 185.2 90.9 195.4 93.7 205.5" fill="#36e69a"/>
<path id="Vector_27" d="M 107.3 213.5 C 107.4 223.8 108.1 234 109.4 244.2 C 111.9 234.4 113.2 224.3 113.1 214.1 C 113.1 203.6 111.7 193 109.1 182.8 C 107.9 193 107.2 203.2 107.3 213.5" fill="#25b774"/>
<path id="Vector_28" d="M 83.1 229.6 C 92.4 233.3 101.2 238.3 109.4 244.2 C 99.8 241.8 90.4 238.7 81.2 235 C 72.2 231.3 63.3 227.1 54.8 222.3 C 64.5 223.5 74 226 83.1 229.6" fill="#25b774"/>
<path id="Vector_29" d="M 88.1 243.8 C 97.7 246.4 106.9 250.1 115.6 255 C 105.9 253.8 96.3 251.9 86.8 249.4 C 77.5 246.9 68.3 243.8 59.4 240.1 C 69.1 240.1 78.7 241.3 88.1 243.8" fill="#25b774"/>
<path id="Vector_30" d="M 118.7 224.8 C 117 234.8 116 244.9 115.6 255 C 119.8 245.9 122.7 236.4 124.4 226.5 C 126.2 216.2 126.7 205.7 125.8 195.3 C 122.8 205 120.4 214.8 118.7 224.8" fill="#25b774"/>
<path id="Vector_31" d="M 98.9 262 C 108.4 265 117.5 269.1 125.9 274.3 C 116.3 272.7 106.7 270.5 97.4 267.6 C 88.2 264.7 79.2 261.2 70.4 257.1 C 80.1 257.5 89.6 259.2 98.9 262 Z" fill="#068e4d"/>
<path id="Vector_32" d="M 130.3 244.3 C 128.2 254.2 126.7 264.3 125.9 274.4 C 130.5 265.5 133.8 256 135.9 246.2 C 138.1 236 139 225.6 138.6 215.1 C 135.2 224.6 132.4 234.4 130.3 244.3" fill="#068e4d"/>
<path id="Vector_33" d="M 108.9 280.7 C 118.3 284 127.2 288.6 135.4 294.2 C 125.9 292.1 116.4 289.5 107.2 286.2 C 98.1 282.9 89.2 279 80.7 274.6 C 90.3 275.4 99.8 277.5 108.9 280.7" fill="#068e4d"/>
<path id="Vector_34" d="M 141 264.3 C 138.5 274.1 136.6 284.1 135.4 294.2 C 140.3 285.4 144 276.1 146.6 266.4 C 149.2 256.3 150.5 245.9 150.6 235.4 C 146.7 244.8 143.5 254.4 141 264.3 Z" fill="#068e4d"/>
<path id="Vector_35" d="M 92.6 217.7 C 115.8 252.1 134.9 289.1 149.5 328" stroke="#36e69a" stroke-width="2" stroke-linecap="round" stroke-linejoin="round"/>
</g>
<g id="floor" style="opacity: 0">
    <animate
      attributeName="opacity" 
      attributeType="CSS"
      from="0"
      to="1" 
      dur="0.5s"
      begin="animRock.end - 0.2s"
      repeatCount="1"
      fill="freeze" 
    />
<path id="Vector_36" d="M 72 329 H 295.5" stroke="white" stroke-width="2" stroke-miterlimit="10" stroke-linecap="round"/>
</g>
</g>
</g>
<defs>
<clipPath id="clip0">
    <rect width="350" height="330" fill="white"/>
</clipPath>
<clipPath id="clip1">
    <path id="Vector_10" d="M 275 225.4 H 257.9 C 253.2 225.4 248.8 223.5 245.5 220.3 C 242.2 217 240.4 212.5 240.3 207.8 V 170 C 240.4 165.3 242.2 160.9 245.5 157.6 C 248.8 154.3 253.2 152.4 257.9 152.4 H 275 C 279.6 152.4 284.1 154.3 287.4 157.6 C 290.7 160.9 292.5 165.4 292.5 170 V 207.8 C 292.5 212.5 290.7 216.9 287.4 220.2 C 284.1 223.5 279.7 225.4 275 225.4 V 225.4 Z" stroke="white" stroke-width="2"/>
</clipPath>
</defs>
</svg>
